%TF.GenerationSoftware,KiCad,Pcbnew,8.0.4*%
%TF.CreationDate,2024-09-11T12:06:29+03:00*%
%TF.ProjectId,LPF_434MHz,4c50465f-3433-4344-9d48-7a2e6b696361,rev?*%
%TF.SameCoordinates,Original*%
%TF.FileFunction,Copper,L1,Top*%
%TF.FilePolarity,Positive*%
%FSLAX46Y46*%
G04 Gerber Fmt 4.6, Leading zero omitted, Abs format (unit mm)*
G04 Created by KiCad (PCBNEW 8.0.4) date 2024-09-11 12:06:29*
%MOMM*%
%LPD*%
G01*
G04 APERTURE LIST*
G04 Aperture macros list*
%AMRoundRect*
0 Rectangle with rounded corners*
0 $1 Rounding radius*
0 $2 $3 $4 $5 $6 $7 $8 $9 X,Y pos of 4 corners*
0 Add a 4 corners polygon primitive as box body*
4,1,4,$2,$3,$4,$5,$6,$7,$8,$9,$2,$3,0*
0 Add four circle primitives for the rounded corners*
1,1,$1+$1,$2,$3*
1,1,$1+$1,$4,$5*
1,1,$1+$1,$6,$7*
1,1,$1+$1,$8,$9*
0 Add four rect primitives between the rounded corners*
20,1,$1+$1,$2,$3,$4,$5,0*
20,1,$1+$1,$4,$5,$6,$7,0*
20,1,$1+$1,$6,$7,$8,$9,0*
20,1,$1+$1,$8,$9,$2,$3,0*%
G04 Aperture macros list end*
%TA.AperFunction,SMDPad,CuDef*%
%ADD10RoundRect,0.218750X-0.218750X-0.256250X0.218750X-0.256250X0.218750X0.256250X-0.218750X0.256250X0*%
%TD*%
%TA.AperFunction,SMDPad,CuDef*%
%ADD11R,2.000000X2.250000*%
%TD*%
%TA.AperFunction,SMDPad,CuDef*%
%ADD12R,3.000000X1.250000*%
%TD*%
%TA.AperFunction,SMDPad,CuDef*%
%ADD13RoundRect,0.225000X-0.250000X0.225000X-0.250000X-0.225000X0.250000X-0.225000X0.250000X0.225000X0*%
%TD*%
%TA.AperFunction,ViaPad*%
%ADD14C,0.600000*%
%TD*%
%TA.AperFunction,Conductor*%
%ADD15C,0.200000*%
%TD*%
%TA.AperFunction,Conductor*%
%ADD16C,1.000000*%
%TD*%
%TA.AperFunction,Conductor*%
%ADD17C,2.200000*%
%TD*%
G04 APERTURE END LIST*
D10*
%TO.P,L8,1,1*%
%TO.N,Net-(L7-Pad2)*%
X145414900Y-100126800D03*
%TO.P,L8,2,2*%
%TO.N,Net-(J2-In)*%
X146989900Y-100126800D03*
%TD*%
%TO.P,L7,1,1*%
%TO.N,Net-(L5-Pad2)*%
X142366900Y-100126800D03*
%TO.P,L7,2,2*%
%TO.N,Net-(L7-Pad2)*%
X143941900Y-100126800D03*
%TD*%
%TO.P,L6,1,1*%
%TO.N,Net-(J1-In)*%
X117881300Y-100126800D03*
%TO.P,L6,2,2*%
%TO.N,Net-(L4-Pad1)*%
X119456300Y-100126800D03*
%TD*%
%TO.P,L5,1,1*%
%TO.N,Net-(C4-Pad1)*%
X139318900Y-100126800D03*
%TO.P,L5,2,2*%
%TO.N,Net-(L5-Pad2)*%
X140893900Y-100126800D03*
%TD*%
%TO.P,L4,1,1*%
%TO.N,Net-(L4-Pad1)*%
X120929300Y-100126800D03*
%TO.P,L4,2,2*%
%TO.N,Net-(L1-Pad1)*%
X122504300Y-100126800D03*
%TD*%
%TO.P,L3,1,1*%
%TO.N,Net-(L2-Pad2)*%
X133172100Y-100126800D03*
%TO.P,L3,2,2*%
%TO.N,Net-(C4-Pad1)*%
X134747100Y-100126800D03*
%TD*%
%TO.P,L2,1,1*%
%TO.N,Net-(C1-Pad1)*%
X130124100Y-100126800D03*
%TO.P,L2,2,2*%
%TO.N,Net-(L2-Pad2)*%
X131699100Y-100126800D03*
%TD*%
%TO.P,L1,1,1*%
%TO.N,Net-(L1-Pad1)*%
X123977300Y-100126800D03*
%TO.P,L1,2,2*%
%TO.N,Net-(C1-Pad1)*%
X125552300Y-100126800D03*
%TD*%
D11*
%TO.P,J2,1,In*%
%TO.N,Net-(J2-In)*%
X149777800Y-100116000D03*
D12*
%TO.P,J2,2,Ext*%
%TO.N,GND*%
X149277800Y-102616000D03*
X149277800Y-97616000D03*
%TD*%
D11*
%TO.P,J1,1,In*%
%TO.N,Net-(J1-In)*%
X114104800Y-100116000D03*
D12*
%TO.P,J1,2,Ext*%
%TO.N,GND*%
X114604800Y-97616000D03*
X114604800Y-102616000D03*
%TD*%
D13*
%TO.P,C5,1*%
%TO.N,Net-(C4-Pad1)*%
X136271000Y-100100800D03*
%TO.P,C5,2*%
%TO.N,GND*%
X136271000Y-101650800D03*
%TD*%
%TO.P,C4,1*%
%TO.N,Net-(C4-Pad1)*%
X137808400Y-100100800D03*
%TO.P,C4,2*%
%TO.N,GND*%
X137808400Y-101650800D03*
%TD*%
%TO.P,C2,1*%
%TO.N,Net-(C1-Pad1)*%
X127076200Y-100100800D03*
%TO.P,C2,2*%
%TO.N,GND*%
X127076200Y-101650800D03*
%TD*%
%TO.P,C1,1*%
%TO.N,Net-(C1-Pad1)*%
X128597400Y-100100800D03*
%TO.P,C1,2*%
%TO.N,GND*%
X128597400Y-101650800D03*
%TD*%
D14*
%TO.N,GND*%
X137475997Y-102666800D03*
X138176000Y-102666800D03*
X135926597Y-102654100D03*
X136626600Y-102654100D03*
X128255797Y-102666800D03*
X128955800Y-102666800D03*
X127446003Y-102666800D03*
X126746000Y-102666800D03*
X147269200Y-102616000D03*
X147269200Y-97612200D03*
X116586000Y-97612200D03*
X116586000Y-102616000D03*
%TD*%
D15*
%TO.N,GND*%
X137806197Y-102336600D02*
X137475997Y-102666800D01*
X137806197Y-101650800D02*
X137806197Y-102296997D01*
X137806197Y-102296997D02*
X138176000Y-102666800D01*
X136256797Y-102323900D02*
X135926597Y-102654100D01*
X136256797Y-101638100D02*
X136256797Y-102284297D01*
X136256797Y-102284297D02*
X136626600Y-102654100D01*
X128585997Y-102336600D02*
X128255797Y-102666800D01*
X128585997Y-101650800D02*
X128585997Y-102296997D01*
X128585997Y-102296997D02*
X128955800Y-102666800D01*
X127076200Y-102296997D02*
X127446003Y-102666800D01*
X127076200Y-101650800D02*
X127076200Y-102296997D01*
X127076200Y-102336600D02*
X126746000Y-102666800D01*
X127076200Y-101650800D02*
X127076200Y-102336600D01*
D16*
X149277800Y-102616000D02*
X147269200Y-102616000D01*
X147273000Y-97616000D02*
X147269200Y-97612200D01*
X149277800Y-97616000D02*
X147273000Y-97616000D01*
X116582200Y-97616000D02*
X116586000Y-97612200D01*
X114604800Y-97616000D02*
X116582200Y-97616000D01*
X114604800Y-102616000D02*
X116586000Y-102616000D01*
D17*
%TO.N,Net-(J2-In)*%
X149777800Y-100116000D02*
X147614000Y-100116000D01*
D16*
%TO.N,Net-(L7-Pad2)*%
X143941900Y-100126800D02*
X145414900Y-100126800D01*
%TO.N,Net-(L5-Pad2)*%
X142366900Y-100126800D02*
X140893900Y-100126800D01*
%TO.N,Net-(C4-Pad1)*%
X137834400Y-100126800D02*
X137808400Y-100100800D01*
X139318900Y-100126800D02*
X137834400Y-100126800D01*
X137782400Y-100126800D02*
X137808400Y-100100800D01*
X134747100Y-100126800D02*
X137782400Y-100126800D01*
%TO.N,Net-(L2-Pad2)*%
X131699100Y-100126800D02*
X133172100Y-100126800D01*
%TO.N,Net-(C1-Pad1)*%
X128623400Y-100126800D02*
X128597400Y-100100800D01*
X130124100Y-100126800D02*
X128623400Y-100126800D01*
X128571400Y-100126800D02*
X128597400Y-100100800D01*
X125552300Y-100126800D02*
X128571400Y-100126800D01*
%TO.N,Net-(L1-Pad1)*%
X122504300Y-100126800D02*
X123977300Y-100126800D01*
%TO.N,Net-(L4-Pad1)*%
X120929300Y-100126800D02*
X119456300Y-100126800D01*
D17*
%TO.N,Net-(J1-In)*%
X117181000Y-100116000D02*
X117195600Y-100101400D01*
X114104800Y-100116000D02*
X117181000Y-100116000D01*
%TD*%
%TA.AperFunction,Conductor*%
%TO.N,GND*%
G36*
X129029059Y-101187885D02*
G01*
X129074814Y-101240689D01*
X129085977Y-101288938D01*
X129108199Y-102133397D01*
X129108200Y-102133400D01*
X129494809Y-102865922D01*
X129508691Y-102934399D01*
X129483349Y-102999510D01*
X129426827Y-103040584D01*
X129385145Y-103047800D01*
X126294007Y-103047800D01*
X126226968Y-103028115D01*
X126181213Y-102975311D01*
X126171269Y-102906153D01*
X126185029Y-102864641D01*
X126568200Y-102158800D01*
X126546061Y-101295378D01*
X126564020Y-101227856D01*
X126615634Y-101180763D01*
X126670020Y-101168200D01*
X128962020Y-101168200D01*
X129029059Y-101187885D01*
G37*
%TD.AperFunction*%
%TD*%
%TA.AperFunction,Conductor*%
%TO.N,GND*%
G36*
X138249259Y-101187885D02*
G01*
X138295014Y-101240689D01*
X138306177Y-101288938D01*
X138328399Y-102133397D01*
X138328400Y-102133400D01*
X138715009Y-102865922D01*
X138728891Y-102934399D01*
X138703549Y-102999510D01*
X138647027Y-103040584D01*
X138605345Y-103047800D01*
X135514207Y-103047800D01*
X135447168Y-103028115D01*
X135401413Y-102975311D01*
X135391469Y-102906153D01*
X135405229Y-102864641D01*
X135788400Y-102158800D01*
X135766261Y-101295378D01*
X135784220Y-101227856D01*
X135835834Y-101180763D01*
X135890220Y-101168200D01*
X138182220Y-101168200D01*
X138249259Y-101187885D01*
G37*
%TD.AperFunction*%
%TD*%
M02*
