%TF.GenerationSoftware,KiCad,Pcbnew,8.0.4*%
%TF.CreationDate,2024-09-11T12:06:31+03:00*%
%TF.ProjectId,LPF_434MHz,4c50465f-3433-4344-9d48-7a2e6b696361,rev?*%
%TF.SameCoordinates,Original*%
%TF.FileFunction,Drillmap*%
%TF.FilePolarity,Positive*%
%FSLAX45Y45*%
G04 Gerber Fmt 4.5, Leading zero omitted, Abs format (unit mm)*
G04 Created by KiCad (PCBNEW 8.0.4) date 2024-09-11 12:06:31*
%MOMM*%
%LPD*%
G01*
G04 APERTURE LIST*
%ADD10C,0.050000*%
%ADD11C,0.200000*%
G04 APERTURE END LIST*
D10*
X11310480Y-9648380D02*
X11310480Y-10374820D01*
X11310480Y-10374820D02*
X15077780Y-10375900D01*
X11310480Y-9648380D02*
X15077780Y-9649460D01*
X15077780Y-9649460D02*
X15077780Y-10375900D01*
D11*
X11568757Y-10689884D02*
X11568757Y-10489884D01*
X11568757Y-10489884D02*
X11616376Y-10489884D01*
X11616376Y-10489884D02*
X11644947Y-10499408D01*
X11644947Y-10499408D02*
X11663995Y-10518455D01*
X11663995Y-10518455D02*
X11673519Y-10537503D01*
X11673519Y-10537503D02*
X11683042Y-10575598D01*
X11683042Y-10575598D02*
X11683042Y-10604170D01*
X11683042Y-10604170D02*
X11673519Y-10642265D01*
X11673519Y-10642265D02*
X11663995Y-10661312D01*
X11663995Y-10661312D02*
X11644947Y-10680360D01*
X11644947Y-10680360D02*
X11616376Y-10689884D01*
X11616376Y-10689884D02*
X11568757Y-10689884D01*
X11768757Y-10689884D02*
X11768757Y-10556550D01*
X11768757Y-10594646D02*
X11778281Y-10575598D01*
X11778281Y-10575598D02*
X11787804Y-10566074D01*
X11787804Y-10566074D02*
X11806852Y-10556550D01*
X11806852Y-10556550D02*
X11825900Y-10556550D01*
X11892566Y-10689884D02*
X11892566Y-10556550D01*
X11892566Y-10489884D02*
X11883042Y-10499408D01*
X11883042Y-10499408D02*
X11892566Y-10508931D01*
X11892566Y-10508931D02*
X11902090Y-10499408D01*
X11902090Y-10499408D02*
X11892566Y-10489884D01*
X11892566Y-10489884D02*
X11892566Y-10508931D01*
X12016376Y-10689884D02*
X11997328Y-10680360D01*
X11997328Y-10680360D02*
X11987804Y-10661312D01*
X11987804Y-10661312D02*
X11987804Y-10489884D01*
X12121138Y-10689884D02*
X12102090Y-10680360D01*
X12102090Y-10680360D02*
X12092566Y-10661312D01*
X12092566Y-10661312D02*
X12092566Y-10489884D01*
X12349709Y-10689884D02*
X12349709Y-10489884D01*
X12349709Y-10489884D02*
X12416376Y-10632741D01*
X12416376Y-10632741D02*
X12483042Y-10489884D01*
X12483042Y-10489884D02*
X12483042Y-10689884D01*
X12663995Y-10689884D02*
X12663995Y-10585122D01*
X12663995Y-10585122D02*
X12654471Y-10566074D01*
X12654471Y-10566074D02*
X12635423Y-10556550D01*
X12635423Y-10556550D02*
X12597328Y-10556550D01*
X12597328Y-10556550D02*
X12578281Y-10566074D01*
X12663995Y-10680360D02*
X12644947Y-10689884D01*
X12644947Y-10689884D02*
X12597328Y-10689884D01*
X12597328Y-10689884D02*
X12578281Y-10680360D01*
X12578281Y-10680360D02*
X12568757Y-10661312D01*
X12568757Y-10661312D02*
X12568757Y-10642265D01*
X12568757Y-10642265D02*
X12578281Y-10623217D01*
X12578281Y-10623217D02*
X12597328Y-10613693D01*
X12597328Y-10613693D02*
X12644947Y-10613693D01*
X12644947Y-10613693D02*
X12663995Y-10604170D01*
X12759233Y-10556550D02*
X12759233Y-10756550D01*
X12759233Y-10566074D02*
X12778281Y-10556550D01*
X12778281Y-10556550D02*
X12816376Y-10556550D01*
X12816376Y-10556550D02*
X12835423Y-10566074D01*
X12835423Y-10566074D02*
X12844947Y-10575598D01*
X12844947Y-10575598D02*
X12854471Y-10594646D01*
X12854471Y-10594646D02*
X12854471Y-10651789D01*
X12854471Y-10651789D02*
X12844947Y-10670836D01*
X12844947Y-10670836D02*
X12835423Y-10680360D01*
X12835423Y-10680360D02*
X12816376Y-10689884D01*
X12816376Y-10689884D02*
X12778281Y-10689884D01*
X12778281Y-10689884D02*
X12759233Y-10680360D01*
X12940185Y-10670836D02*
X12949709Y-10680360D01*
X12949709Y-10680360D02*
X12940185Y-10689884D01*
X12940185Y-10689884D02*
X12930662Y-10680360D01*
X12930662Y-10680360D02*
X12940185Y-10670836D01*
X12940185Y-10670836D02*
X12940185Y-10689884D01*
X12940185Y-10566074D02*
X12949709Y-10575598D01*
X12949709Y-10575598D02*
X12940185Y-10585122D01*
X12940185Y-10585122D02*
X12930662Y-10575598D01*
X12930662Y-10575598D02*
X12940185Y-10566074D01*
X12940185Y-10566074D02*
X12940185Y-10585122D01*
M02*
