%TF.GenerationSoftware,KiCad,Pcbnew,8.0.4*%
%TF.CreationDate,2024-09-11T12:06:29+03:00*%
%TF.ProjectId,LPF_434MHz,4c50465f-3433-4344-9d48-7a2e6b696361,rev?*%
%TF.SameCoordinates,Original*%
%TF.FileFunction,Legend,Top*%
%TF.FilePolarity,Positive*%
%FSLAX46Y46*%
G04 Gerber Fmt 4.6, Leading zero omitted, Abs format (unit mm)*
G04 Created by KiCad (PCBNEW 8.0.4) date 2024-09-11 12:06:29*
%MOMM*%
%LPD*%
G01*
G04 APERTURE LIST*
%ADD10C,0.150000*%
%ADD11C,0.120000*%
G04 APERTURE END LIST*
D10*
X146035733Y-99151619D02*
X145559543Y-99151619D01*
X145559543Y-99151619D02*
X145559543Y-98151619D01*
X146511924Y-98580190D02*
X146416686Y-98532571D01*
X146416686Y-98532571D02*
X146369067Y-98484952D01*
X146369067Y-98484952D02*
X146321448Y-98389714D01*
X146321448Y-98389714D02*
X146321448Y-98342095D01*
X146321448Y-98342095D02*
X146369067Y-98246857D01*
X146369067Y-98246857D02*
X146416686Y-98199238D01*
X146416686Y-98199238D02*
X146511924Y-98151619D01*
X146511924Y-98151619D02*
X146702400Y-98151619D01*
X146702400Y-98151619D02*
X146797638Y-98199238D01*
X146797638Y-98199238D02*
X146845257Y-98246857D01*
X146845257Y-98246857D02*
X146892876Y-98342095D01*
X146892876Y-98342095D02*
X146892876Y-98389714D01*
X146892876Y-98389714D02*
X146845257Y-98484952D01*
X146845257Y-98484952D02*
X146797638Y-98532571D01*
X146797638Y-98532571D02*
X146702400Y-98580190D01*
X146702400Y-98580190D02*
X146511924Y-98580190D01*
X146511924Y-98580190D02*
X146416686Y-98627809D01*
X146416686Y-98627809D02*
X146369067Y-98675428D01*
X146369067Y-98675428D02*
X146321448Y-98770666D01*
X146321448Y-98770666D02*
X146321448Y-98961142D01*
X146321448Y-98961142D02*
X146369067Y-99056380D01*
X146369067Y-99056380D02*
X146416686Y-99104000D01*
X146416686Y-99104000D02*
X146511924Y-99151619D01*
X146511924Y-99151619D02*
X146702400Y-99151619D01*
X146702400Y-99151619D02*
X146797638Y-99104000D01*
X146797638Y-99104000D02*
X146845257Y-99056380D01*
X146845257Y-99056380D02*
X146892876Y-98961142D01*
X146892876Y-98961142D02*
X146892876Y-98770666D01*
X146892876Y-98770666D02*
X146845257Y-98675428D01*
X146845257Y-98675428D02*
X146797638Y-98627809D01*
X146797638Y-98627809D02*
X146702400Y-98580190D01*
X142987733Y-99151619D02*
X142511543Y-99151619D01*
X142511543Y-99151619D02*
X142511543Y-98151619D01*
X143225829Y-98151619D02*
X143892495Y-98151619D01*
X143892495Y-98151619D02*
X143463924Y-99151619D01*
X118502133Y-99151619D02*
X118025943Y-99151619D01*
X118025943Y-99151619D02*
X118025943Y-98151619D01*
X119264038Y-98151619D02*
X119073562Y-98151619D01*
X119073562Y-98151619D02*
X118978324Y-98199238D01*
X118978324Y-98199238D02*
X118930705Y-98246857D01*
X118930705Y-98246857D02*
X118835467Y-98389714D01*
X118835467Y-98389714D02*
X118787848Y-98580190D01*
X118787848Y-98580190D02*
X118787848Y-98961142D01*
X118787848Y-98961142D02*
X118835467Y-99056380D01*
X118835467Y-99056380D02*
X118883086Y-99104000D01*
X118883086Y-99104000D02*
X118978324Y-99151619D01*
X118978324Y-99151619D02*
X119168800Y-99151619D01*
X119168800Y-99151619D02*
X119264038Y-99104000D01*
X119264038Y-99104000D02*
X119311657Y-99056380D01*
X119311657Y-99056380D02*
X119359276Y-98961142D01*
X119359276Y-98961142D02*
X119359276Y-98723047D01*
X119359276Y-98723047D02*
X119311657Y-98627809D01*
X119311657Y-98627809D02*
X119264038Y-98580190D01*
X119264038Y-98580190D02*
X119168800Y-98532571D01*
X119168800Y-98532571D02*
X118978324Y-98532571D01*
X118978324Y-98532571D02*
X118883086Y-98580190D01*
X118883086Y-98580190D02*
X118835467Y-98627809D01*
X118835467Y-98627809D02*
X118787848Y-98723047D01*
X139939733Y-99151619D02*
X139463543Y-99151619D01*
X139463543Y-99151619D02*
X139463543Y-98151619D01*
X140749257Y-98151619D02*
X140273067Y-98151619D01*
X140273067Y-98151619D02*
X140225448Y-98627809D01*
X140225448Y-98627809D02*
X140273067Y-98580190D01*
X140273067Y-98580190D02*
X140368305Y-98532571D01*
X140368305Y-98532571D02*
X140606400Y-98532571D01*
X140606400Y-98532571D02*
X140701638Y-98580190D01*
X140701638Y-98580190D02*
X140749257Y-98627809D01*
X140749257Y-98627809D02*
X140796876Y-98723047D01*
X140796876Y-98723047D02*
X140796876Y-98961142D01*
X140796876Y-98961142D02*
X140749257Y-99056380D01*
X140749257Y-99056380D02*
X140701638Y-99104000D01*
X140701638Y-99104000D02*
X140606400Y-99151619D01*
X140606400Y-99151619D02*
X140368305Y-99151619D01*
X140368305Y-99151619D02*
X140273067Y-99104000D01*
X140273067Y-99104000D02*
X140225448Y-99056380D01*
X121550133Y-99151619D02*
X121073943Y-99151619D01*
X121073943Y-99151619D02*
X121073943Y-98151619D01*
X122312038Y-98484952D02*
X122312038Y-99151619D01*
X122073943Y-98104000D02*
X121835848Y-98818285D01*
X121835848Y-98818285D02*
X122454895Y-98818285D01*
X133792933Y-99151619D02*
X133316743Y-99151619D01*
X133316743Y-99151619D02*
X133316743Y-98151619D01*
X134031029Y-98151619D02*
X134650076Y-98151619D01*
X134650076Y-98151619D02*
X134316743Y-98532571D01*
X134316743Y-98532571D02*
X134459600Y-98532571D01*
X134459600Y-98532571D02*
X134554838Y-98580190D01*
X134554838Y-98580190D02*
X134602457Y-98627809D01*
X134602457Y-98627809D02*
X134650076Y-98723047D01*
X134650076Y-98723047D02*
X134650076Y-98961142D01*
X134650076Y-98961142D02*
X134602457Y-99056380D01*
X134602457Y-99056380D02*
X134554838Y-99104000D01*
X134554838Y-99104000D02*
X134459600Y-99151619D01*
X134459600Y-99151619D02*
X134173886Y-99151619D01*
X134173886Y-99151619D02*
X134078648Y-99104000D01*
X134078648Y-99104000D02*
X134031029Y-99056380D01*
X130744933Y-99151619D02*
X130268743Y-99151619D01*
X130268743Y-99151619D02*
X130268743Y-98151619D01*
X131030648Y-98246857D02*
X131078267Y-98199238D01*
X131078267Y-98199238D02*
X131173505Y-98151619D01*
X131173505Y-98151619D02*
X131411600Y-98151619D01*
X131411600Y-98151619D02*
X131506838Y-98199238D01*
X131506838Y-98199238D02*
X131554457Y-98246857D01*
X131554457Y-98246857D02*
X131602076Y-98342095D01*
X131602076Y-98342095D02*
X131602076Y-98437333D01*
X131602076Y-98437333D02*
X131554457Y-98580190D01*
X131554457Y-98580190D02*
X130983029Y-99151619D01*
X130983029Y-99151619D02*
X131602076Y-99151619D01*
X124598133Y-99151619D02*
X124121943Y-99151619D01*
X124121943Y-99151619D02*
X124121943Y-98151619D01*
X125455276Y-99151619D02*
X124883848Y-99151619D01*
X125169562Y-99151619D02*
X125169562Y-98151619D01*
X125169562Y-98151619D02*
X125074324Y-98294476D01*
X125074324Y-98294476D02*
X124979086Y-98389714D01*
X124979086Y-98389714D02*
X124883848Y-98437333D01*
X136618580Y-98634666D02*
X136666200Y-98682285D01*
X136666200Y-98682285D02*
X136713819Y-98825142D01*
X136713819Y-98825142D02*
X136713819Y-98920380D01*
X136713819Y-98920380D02*
X136666200Y-99063237D01*
X136666200Y-99063237D02*
X136570961Y-99158475D01*
X136570961Y-99158475D02*
X136475723Y-99206094D01*
X136475723Y-99206094D02*
X136285247Y-99253713D01*
X136285247Y-99253713D02*
X136142390Y-99253713D01*
X136142390Y-99253713D02*
X135951914Y-99206094D01*
X135951914Y-99206094D02*
X135856676Y-99158475D01*
X135856676Y-99158475D02*
X135761438Y-99063237D01*
X135761438Y-99063237D02*
X135713819Y-98920380D01*
X135713819Y-98920380D02*
X135713819Y-98825142D01*
X135713819Y-98825142D02*
X135761438Y-98682285D01*
X135761438Y-98682285D02*
X135809057Y-98634666D01*
X135713819Y-97729904D02*
X135713819Y-98206094D01*
X135713819Y-98206094D02*
X136190009Y-98253713D01*
X136190009Y-98253713D02*
X136142390Y-98206094D01*
X136142390Y-98206094D02*
X136094771Y-98110856D01*
X136094771Y-98110856D02*
X136094771Y-97872761D01*
X136094771Y-97872761D02*
X136142390Y-97777523D01*
X136142390Y-97777523D02*
X136190009Y-97729904D01*
X136190009Y-97729904D02*
X136285247Y-97682285D01*
X136285247Y-97682285D02*
X136523342Y-97682285D01*
X136523342Y-97682285D02*
X136618580Y-97729904D01*
X136618580Y-97729904D02*
X136666200Y-97777523D01*
X136666200Y-97777523D02*
X136713819Y-97872761D01*
X136713819Y-97872761D02*
X136713819Y-98110856D01*
X136713819Y-98110856D02*
X136666200Y-98206094D01*
X136666200Y-98206094D02*
X136618580Y-98253713D01*
X138236780Y-98634666D02*
X138284400Y-98682285D01*
X138284400Y-98682285D02*
X138332019Y-98825142D01*
X138332019Y-98825142D02*
X138332019Y-98920380D01*
X138332019Y-98920380D02*
X138284400Y-99063237D01*
X138284400Y-99063237D02*
X138189161Y-99158475D01*
X138189161Y-99158475D02*
X138093923Y-99206094D01*
X138093923Y-99206094D02*
X137903447Y-99253713D01*
X137903447Y-99253713D02*
X137760590Y-99253713D01*
X137760590Y-99253713D02*
X137570114Y-99206094D01*
X137570114Y-99206094D02*
X137474876Y-99158475D01*
X137474876Y-99158475D02*
X137379638Y-99063237D01*
X137379638Y-99063237D02*
X137332019Y-98920380D01*
X137332019Y-98920380D02*
X137332019Y-98825142D01*
X137332019Y-98825142D02*
X137379638Y-98682285D01*
X137379638Y-98682285D02*
X137427257Y-98634666D01*
X137665352Y-97777523D02*
X138332019Y-97777523D01*
X137284400Y-98015618D02*
X137998685Y-98253713D01*
X137998685Y-98253713D02*
X137998685Y-97634666D01*
X127435780Y-98642466D02*
X127483400Y-98690085D01*
X127483400Y-98690085D02*
X127531019Y-98832942D01*
X127531019Y-98832942D02*
X127531019Y-98928180D01*
X127531019Y-98928180D02*
X127483400Y-99071037D01*
X127483400Y-99071037D02*
X127388161Y-99166275D01*
X127388161Y-99166275D02*
X127292923Y-99213894D01*
X127292923Y-99213894D02*
X127102447Y-99261513D01*
X127102447Y-99261513D02*
X126959590Y-99261513D01*
X126959590Y-99261513D02*
X126769114Y-99213894D01*
X126769114Y-99213894D02*
X126673876Y-99166275D01*
X126673876Y-99166275D02*
X126578638Y-99071037D01*
X126578638Y-99071037D02*
X126531019Y-98928180D01*
X126531019Y-98928180D02*
X126531019Y-98832942D01*
X126531019Y-98832942D02*
X126578638Y-98690085D01*
X126578638Y-98690085D02*
X126626257Y-98642466D01*
X126626257Y-98261513D02*
X126578638Y-98213894D01*
X126578638Y-98213894D02*
X126531019Y-98118656D01*
X126531019Y-98118656D02*
X126531019Y-97880561D01*
X126531019Y-97880561D02*
X126578638Y-97785323D01*
X126578638Y-97785323D02*
X126626257Y-97737704D01*
X126626257Y-97737704D02*
X126721495Y-97690085D01*
X126721495Y-97690085D02*
X126816733Y-97690085D01*
X126816733Y-97690085D02*
X126959590Y-97737704D01*
X126959590Y-97737704D02*
X127531019Y-98309132D01*
X127531019Y-98309132D02*
X127531019Y-97690085D01*
X128959780Y-98642466D02*
X129007400Y-98690085D01*
X129007400Y-98690085D02*
X129055019Y-98832942D01*
X129055019Y-98832942D02*
X129055019Y-98928180D01*
X129055019Y-98928180D02*
X129007400Y-99071037D01*
X129007400Y-99071037D02*
X128912161Y-99166275D01*
X128912161Y-99166275D02*
X128816923Y-99213894D01*
X128816923Y-99213894D02*
X128626447Y-99261513D01*
X128626447Y-99261513D02*
X128483590Y-99261513D01*
X128483590Y-99261513D02*
X128293114Y-99213894D01*
X128293114Y-99213894D02*
X128197876Y-99166275D01*
X128197876Y-99166275D02*
X128102638Y-99071037D01*
X128102638Y-99071037D02*
X128055019Y-98928180D01*
X128055019Y-98928180D02*
X128055019Y-98832942D01*
X128055019Y-98832942D02*
X128102638Y-98690085D01*
X128102638Y-98690085D02*
X128150257Y-98642466D01*
X129055019Y-97690085D02*
X129055019Y-98261513D01*
X129055019Y-97975799D02*
X128055019Y-97975799D01*
X128055019Y-97975799D02*
X128197876Y-98071037D01*
X128197876Y-98071037D02*
X128293114Y-98166275D01*
X128293114Y-98166275D02*
X128340733Y-98261513D01*
D11*
%TO.C,L8*%
X146039621Y-99616800D02*
X146365179Y-99616800D01*
X146039621Y-100636800D02*
X146365179Y-100636800D01*
%TO.C,L7*%
X142991621Y-99616800D02*
X143317179Y-99616800D01*
X142991621Y-100636800D02*
X143317179Y-100636800D01*
%TO.C,L6*%
X118506021Y-99616800D02*
X118831579Y-99616800D01*
X118506021Y-100636800D02*
X118831579Y-100636800D01*
%TO.C,L5*%
X139943621Y-99616800D02*
X140269179Y-99616800D01*
X139943621Y-100636800D02*
X140269179Y-100636800D01*
%TO.C,L4*%
X121554021Y-99616800D02*
X121879579Y-99616800D01*
X121554021Y-100636800D02*
X121879579Y-100636800D01*
%TO.C,L3*%
X133796821Y-99616800D02*
X134122379Y-99616800D01*
X133796821Y-100636800D02*
X134122379Y-100636800D01*
%TO.C,L2*%
X130748821Y-99616800D02*
X131074379Y-99616800D01*
X130748821Y-100636800D02*
X131074379Y-100636800D01*
%TO.C,L1*%
X124602021Y-99616800D02*
X124927579Y-99616800D01*
X124602021Y-100636800D02*
X124927579Y-100636800D01*
%TO.C,C5*%
X136781000Y-100735220D02*
X136781000Y-101016380D01*
X135761000Y-100735220D02*
X135761000Y-101016380D01*
%TO.C,C4*%
X138318400Y-100735220D02*
X138318400Y-101016380D01*
X137298400Y-100735220D02*
X137298400Y-101016380D01*
%TO.C,C2*%
X127586200Y-100735220D02*
X127586200Y-101016380D01*
X126566200Y-100735220D02*
X126566200Y-101016380D01*
%TO.C,C1*%
X129107400Y-100735220D02*
X129107400Y-101016380D01*
X128087400Y-100735220D02*
X128087400Y-101016380D01*
%TD*%
M02*
